<?xml version="1.0" encoding="utf-8"?>
<!-- Generator: Adobe Illustrator 15.0.0, SVG Export Plug-In . SVG Version: 6.00 Build 0)  -->
<!DOCTYPE svg PUBLIC "-//W3C//DTD SVG 1.1//EN" "http://www.w3.org/Graphics/SVG/1.1/DTD/svg11.dtd">
<svg version="1.1" id="Layer_1" xmlns="http://www.w3.org/2000/svg" xmlns:xlink="http://www.w3.org/1999/xlink" x="0px" y="0px"
	 width="252px" height="144px" viewBox="0 0 252 144" enable-background="new 0 0 252 144" xml:space="preserve">
<g>
	<path fill="#FFFFFF" stroke="#000000" stroke-miterlimit="10" d="M9.473,118.639h8.048V87.027H9.473V118.639z M31.214,96.273
		c-7.469,0-12.05,4.627-12.05,11.604c0,7.114,5.069,11.252,11.609,11.252h0.041c6.092,0,11.784-3.692,11.784-11.649
		C42.599,100.9,38.061,96.273,31.214,96.273z M30.994,113.482h-0.045c-2.447,0-3.513-2.486-3.513-5.778
		c0-2.894,0.891-5.781,3.559-5.781c2.354,0,3.333,2.759,3.333,5.781C34.328,111.215,33.171,113.482,30.994,113.482z M51.356,100.721
		h-0.177l-0.311-3.955h-6.849c0.134,1.824,0.177,3.912,0.177,7.377v14.496h8.049v-10.801c0-0.536,0.045-1.027,0.088-1.382
		c0.445-1.774,2.047-2.756,4.404-2.756c0.843,0,1.466,0.086,2.045,0.225V96.41c-0.579-0.137-0.888-0.137-1.602-0.137
		C55.269,96.273,52.51,97.385,51.356,100.721z M70.812,96.273c-8.051,0-11.341,6.582-11.341,11.649
		c0,6.938,4.361,11.159,12.05,11.159c2.713,0,5.556-0.352,8.185-1.377l-1.027-5.333c-1.952,0.623-3.913,0.843-5.956,0.843
		c-2.845,0-5.378-0.977-5.646-2.71h13.516c0.132-0.537,0.313-1.735,0.313-3.024C80.905,101.479,77.88,96.273,70.812,96.273z
		 M66.985,105.079c0.134-1.379,1.07-3.56,3.424-3.56c2.534,0,3.113,2.313,3.113,3.56H66.985z M108.736,96.273
		c-1.465,0-2.756,0.313-3.865,0.894c-1.159,0.623-2.179,1.466-3.026,2.62h-0.089c-0.934-2.225-3.111-3.514-5.913-3.514
		c-3.779,0-5.692,2.139-6.492,3.248h-0.18l-0.311-2.758h-6.712c0.088,2.045,0.177,4.533,0.177,7.469v14.404h7.78v-12.49
		c0-0.535,0.045-1.112,0.225-1.644c0.309-0.718,1.02-1.782,2.44-1.782c1.827,0,2.581,1.6,2.581,4.049v11.867h7.78v-12.447
		c0-0.487,0.045-1.155,0.225-1.6c0.354-1.068,1.154-1.87,2.445-1.87c1.777,0,2.579,1.56,2.579,4.271v11.646h7.78V105.79
		C116.162,99.698,113.446,96.273,108.736,96.273z M129.666,117.466l-1.12-0.159c-1.92-0.267-2.026-0.8-2.026-4.643v-9.605
		c0-2.188,0.105-4.746,0.211-6.613c-0.053-0.215-0.265-0.32-0.535-0.32c-1.225,0.802-4.265,2.188-5.495,2.615
		c-0.266,0.158-0.266,0.744-0.052,0.959l0.482,0.318c1.438,0.963,1.438,1.229,1.438,3.311v9.337c0,3.843-0.055,4.376-2.027,4.644
		l-1.121,0.158c-0.375,0.268-0.268,1.172,0.104,1.333c1.498-0.104,3.097-0.161,5.018-0.161c1.865,0,3.416,0.057,5.02,0.161
		C129.936,118.639,130.039,117.732,129.666,117.466z M124.169,90.896c1.498,0,2.829-0.854,2.829-2.772
		c0-1.497-1.07-2.776-2.666-2.776c-1.604,0-2.884,1.118-2.884,2.879C121.449,89.668,122.515,90.896,124.169,90.896z M144.711,96.874
		c-3.413,0-6.775,2.187-7.467,2.506c-0.375,0-0.48-0.319-0.48-0.694c0-0.69,0.105-1.496,0.213-2.455
		c-0.106-0.264-0.32-0.371-0.639-0.371c-1.389,1.016-3.896,2.295-5.283,2.881c-0.269,0.158-0.269,0.744-0.053,0.959l0.479,0.318
		c1.44,0.963,1.44,1.229,1.44,3.311v22.945c0,3.838-0.058,4.375-2.028,4.638l-1.117,0.162c-0.379,0.268-0.271,1.175,0.102,1.334
		c1.495-0.107,3.094-0.159,5.018-0.159c1.869,0,3.414,0.052,5.978,0.159c0.372-0.159,0.481-1.066,0.108-1.334l-2.084-0.267
		c-1.92-0.269-2.026-0.746-2.026-4.533v-5.605c0-1.118,0.269-1.389,0.745-1.493c0.482,0.104,1.975,0.214,2.938,0.214
		c7.574,0,13.02-5.335,13.02-12.754C153.57,101.246,150.1,96.874,144.711,96.874z M142.311,117.627c-1.119,0-2.771-0.375-3.84-1.175
		c-1.068-0.854-1.602-1.495-1.602-3.202v-9.175c0-1.759,0.156-2.562,0.641-3.147c0.588-0.641,2.238-1.494,4.533-1.494
		c4.803,0,7.203,4.323,7.203,8.588C149.246,113.573,146.688,117.627,142.311,117.627z M162.957,106.102
		c-1.867-1.066-4.107-2.242-4.107-4.429c0-1.92,1.336-3.254,3.418-3.254c2.189,0,3.787,1.55,4.693,3.897
		c0.268,0.319,1.068,0.209,1.279-0.164c0-1.44-0.37-3.147-0.85-4.322c-0.484-0.425-2.455-0.956-4.697-0.956
		c-4.057,0-7.258,2.187-7.258,6.08c0,2.932,2.187,4.802,5.285,6.565c1.973,1.119,4.105,2.448,4.105,4.904
		c0,2.295-1.654,3.416-3.576,3.416c-3.04,0-4.747-2.563-5.656-5.495c-0.268-0.319-0.958-0.268-1.225,0.054
		c-0.105,1.761,0.214,4.373,0.639,5.392c1.334,1.063,3.202,1.599,5.713,1.599c3.944,0,7.684-2.027,7.684-6.084
		C168.404,109.52,165.786,107.704,162.957,106.102z M231.467,117.307c-1.922-0.267-2.025-0.8-2.025-4.643v-9.176
		c0-3.684-2.082-6.614-6.348-6.614c-2.509,0-5.121,1.226-7.26,2.72c-0.484,0.318-0.854,0.534-1.329,0.424
		c-1.5-2.188-2.991-3.144-5.657-3.144c-2.565,0-5.072,1.278-7.098,2.72c-0.373,0-0.586-0.271-0.586-0.589
		c0-0.479,0-1.28,0.105-2.508c-0.105-0.267-0.375-0.373-0.59-0.373c-1.065,0.802-4.109,2.188-5.334,2.615
		c-0.264,0.159-0.264,0.745-0.055,0.959l0.479,0.317c1.44,0.963,1.44,1.229,1.44,3.312v9.337c0,3.843-0.05,4.376-2.028,4.643
		l-1.098,0.137c0.064-0.389-0.029-0.873-0.232-1.043c-0.75,0.158-1.438,0.269-2.08,0.269c-1.494,0-1.654-1.603-1.654-5.817v-8.963
		c0-1.976,0.053-3.628,0.16-4.642c-0.051-0.213-0.213-0.32-0.48-0.372c-1.175,0.531-4.107,0.906-6.242,0.956
		c-0.427,0.214-0.427,0.962-0.055,1.175l0.693,0.27c1.602,0.639,1.977,0.742,1.977,4.215v8.751c0,1.653-0.375,2.452-1.07,3.093
		c-1.175,1.016-2.883,1.6-4.32,1.6c-4.055,0-4.961-2.451-4.961-6.131v-8.914c0-2.613,0.055-3.732,0.158-4.641
		c-0.052-0.213-0.213-0.32-0.533-0.372c-1.17,0.423-3.254,0.906-5.705,0.956c-0.375,0.164-0.43,0.909-0.109,1.175l0.641,0.269
		c1.604,0.695,1.604,1.176,1.604,4.535v8.91c0,4.321,1.759,6.67,6.453,6.67c3.148,0,5.763-1.762,7.363-2.776
		c0.32,0,0.481,0.268,0.481,0.75v2.188c0.106,0.212,0.375,0.373,0.64,0.373c1.78-0.995,4.789-1.526,6.869-1.95
		c-0.024,0.344,0.103,0.729,0.334,0.827c1.651-0.104,3.256-0.161,5.176-0.161c1.865,0,3.414,0.058,4.854,0.161
		c0.375-0.161,0.483-1.065,0.106-1.333l-0.961-0.158c-1.918-0.32-2.024-0.801-2.024-4.644v-8.269c0-1.711,0.265-2.402,0.797-3.041
		c0.804-0.967,2.293-1.922,4.483-1.922c3.307,0,4.91,1.922,4.91,5.494v7.736c0,3.843-0.058,4.322-2.028,4.643l-0.959,0.159
		c-0.377,0.269-0.267,1.173,0.103,1.333c1.495-0.104,2.934-0.16,4.854-0.16c1.869,0,3.417,0.057,5.017,0.16
		c0.377-0.16,0.484-1.064,0.111-1.333l-1.122-0.159c-1.92-0.267-2.027-0.8-2.027-4.643v-8.16c0-1.867,0.161-2.402,0.801-3.206
		c0.748-0.959,2.398-1.864,4.427-1.864c3.362,0,4.963,1.864,4.963,5.494v7.736c0,3.843-0.054,4.322-2.027,4.643l-0.963,0.159
		c-0.373,0.269-0.264,1.173,0.108,1.333c1.494-0.104,2.938-0.16,4.857-0.16c1.87,0,3.415,0.057,5.174,0.16
		c0.373-0.16,0.479-1.064,0.109-1.333L231.467,117.307z M243.014,96.557l-1.832,4.871l-1.83-4.871h-1.054v5.797h0.733V97.53h0.019
		l1.804,4.821h0.657l1.808-4.821h0.016v4.821h0.734v-5.797h-1.055V96.557z M236.762,99.575c-0.178-0.12-0.375-0.22-0.6-0.298
		c-0.217-0.067-0.443-0.135-0.671-0.187c-0.231-0.055-0.457-0.104-0.681-0.151c-0.225-0.043-0.42-0.104-0.598-0.174
		c-0.175-0.072-0.314-0.16-0.422-0.271c-0.104-0.113-0.157-0.257-0.157-0.437c0-0.187,0.034-0.346,0.111-0.476
		c0.073-0.127,0.171-0.228,0.291-0.306c0.123-0.071,0.264-0.125,0.418-0.16c0.153-0.031,0.315-0.049,0.481-0.049
		c0.396,0,0.729,0.097,0.985,0.281c0.257,0.186,0.401,0.487,0.448,0.905h0.73c-0.014-0.319-0.072-0.596-0.185-0.825
		c-0.108-0.229-0.261-0.42-0.454-0.572c-0.189-0.151-0.413-0.264-0.67-0.334c-0.255-0.072-0.53-0.105-0.827-0.105
		c-0.264,0-0.524,0.033-0.771,0.102c-0.258,0.068-0.479,0.172-0.676,0.308c-0.201,0.139-0.36,0.312-0.479,0.526
		c-0.116,0.215-0.178,0.47-0.178,0.76c0,0.264,0.055,0.486,0.158,0.66c0.104,0.177,0.248,0.318,0.424,0.431
		c0.175,0.108,0.373,0.202,0.593,0.267c0.226,0.07,0.452,0.127,0.68,0.178c0.231,0.055,0.452,0.103,0.681,0.151
		c0.22,0.05,0.416,0.111,0.59,0.193c0.176,0.073,0.318,0.179,0.428,0.302c0.102,0.123,0.156,0.284,0.156,0.486
		c0,0.211-0.045,0.384-0.131,0.519c-0.088,0.136-0.201,0.242-0.342,0.32c-0.142,0.079-0.3,0.134-0.476,0.168
		c-0.172,0.03-0.349,0.048-0.522,0.048c-0.216,0-0.427-0.027-0.632-0.082c-0.204-0.053-0.384-0.139-0.538-0.255
		c-0.154-0.11-0.279-0.254-0.373-0.429c-0.095-0.178-0.143-0.387-0.143-0.631h-0.734c0,0.354,0.066,0.656,0.191,0.912
		c0.129,0.258,0.3,0.467,0.52,0.633c0.219,0.166,0.473,0.289,0.764,0.371c0.289,0.082,0.599,0.125,0.919,0.125
		c0.267,0,0.532-0.033,0.803-0.096c0.267-0.062,0.509-0.164,0.726-0.3c0.215-0.139,0.391-0.317,0.53-0.534
		c0.138-0.221,0.207-0.48,0.207-0.791c0-0.285-0.052-0.523-0.155-0.716C237.075,99.857,236.938,99.703,236.762,99.575z"/>
	<g>
		<path fill="#FFFFFF" stroke="#000000" stroke-miterlimit="10" d="M184.598,60.576c0,0-7.855-0.672-11.824-0.672
			c-4.08,0-7.481,0.113-10.883,0.338c-0.799-0.338-1.021-2.266-0.229-2.833l2.607-0.338c4.192-0.568,4.31-1.7,4.31-9.864V19.391
			c-3.117,1.986-6.119,4.372-8.914,7.165c-15.804,15.804-18.905,38.327-6.926,50.299c8.428,8.429,22.065,9.385,34.916,3.713V67.6
			C187.654,63.18,187.146,61.003,184.598,60.576z"/>
		<path fill="#FFFFFF" stroke="#000000" stroke-miterlimit="10" d="M209.965,19.632c-8.006-8.01-20.726-9.269-32.999-4.508v32.083
			c0,8.165,0.388,9.546,4.31,9.864c0,0,11.646-3.179,14.091-4.774c0.567,0,1.022,0.228,1.136,0.682
			c-0.229,3.965-0.457,9.41-0.457,14.059v8.778c2.432-1.711,4.783-3.667,6.999-5.881C218.846,54.125,221.943,31.607,209.965,19.632z
			"/>
		<path fill="#00AEEF" d="M191.057,41.185c-3.516,0-5.779-2.606-5.779-5.667c0-3.743,2.72-6.122,6.123-6.122
			c3.398,0,5.666,2.717,5.666,5.894C197.066,39.371,194.232,41.185,191.057,41.185z"/>
	</g>
</g>
</svg>
